<svg width="130" height="130" viewBox="0 0 130 130" fill="none" xmlns="http://www.w3.org/2000/svg">
<path fill-rule="evenodd" clip-rule="evenodd" d="M64.5833 74.2709C71.4348 74.2709 78.0056 71.5492 82.8503 66.7045C87.695 61.8598 90.4167 55.289 90.4167 48.4376C90.4167 41.5862 87.695 35.0153 82.8503 30.1707C78.0056 25.326 71.4348 22.6042 64.5833 22.6042C57.7319 22.6042 51.1611 25.326 46.3164 30.1707C41.4717 35.0153 38.75 41.5862 38.75 48.4376C38.75 55.289 41.4717 61.8598 46.3164 66.7045C51.1611 71.5492 57.7319 74.2709 64.5833 74.2709ZM64.5833 67.8126C67.1277 67.8126 69.6471 67.3114 71.9978 66.3377C74.3485 65.3641 76.4844 63.9369 78.2835 62.1378C80.0827 60.3386 81.5098 58.2028 82.4835 55.8521C83.4572 53.5014 83.9583 50.9819 83.9583 48.4376C83.9583 45.8932 83.4572 43.3738 82.4835 41.0231C81.5098 38.6724 80.0827 36.5365 78.2835 34.7374C76.4844 32.9383 74.3485 31.5111 71.9978 30.5374C69.6471 29.5637 67.1277 29.0626 64.5833 29.0626C59.4448 29.0626 54.5167 31.1039 50.8831 34.7374C47.2496 38.3709 45.2083 43.299 45.2083 48.4376C45.2083 53.5762 47.2496 58.5043 50.8831 62.1378C54.5167 65.7713 59.4448 67.8126 64.5833 67.8126Z" fill="#8F8F8F"/>
<path fill-rule="evenodd" clip-rule="evenodd" d="M129.167 64.5833C129.167 100.253 100.253 129.167 64.5833 129.167C28.914 129.167 0 100.253 0 64.5833C0 28.914 28.914 0 64.5833 0C100.253 0 129.167 28.914 129.167 64.5833ZM95.6802 113.699C86.3833 119.601 75.5952 122.726 64.5833 122.708C53.3075 122.726 42.2722 119.449 32.8342 113.279C32.0592 112.31 31.2745 111.309 30.4769 110.276C29.555 109.065 29.0579 107.584 29.0625 106.062C29.0625 102.584 31.5619 99.6682 34.9041 99.1806C57.0077 95.9515 72.2268 96.2292 94.3595 99.2936C95.9623 99.526 97.4269 100.33 98.4829 101.559C99.5388 102.787 100.115 104.355 100.104 105.975C100.104 107.525 99.5713 109.03 98.6091 110.205C97.6177 111.413 96.6393 112.578 95.6802 113.699ZM106.514 104.838C105.997 98.7931 101.409 93.7492 95.2443 92.8967C72.5884 89.7611 56.7526 89.4608 33.9708 92.7901C27.7708 93.6943 23.2016 98.7834 22.6591 104.845C12.246 94.0303 6.43781 79.596 6.45833 64.5833C6.45833 32.4822 32.4822 6.45833 64.5833 6.45833C96.6845 6.45833 122.708 32.4822 122.708 64.5833C122.729 79.5928 116.923 94.0244 106.514 104.838Z" fill="#8F8F8F"/>
</svg>
