<svg width="24" height="24" viewBox="0 0 24 24" fill="none" xmlns="http://www.w3.org/2000/svg">
<path d="M12.001 9C11.2053 9 10.4423 9.31607 9.87966 9.87868C9.31705 10.4413 9.00098 11.2044 9.00098 12C9.00098 12.7956 9.31705 13.5587 9.87966 14.1213C10.4423 14.6839 11.2053 15 12.001 15C12.7966 15 13.5597 14.6839 14.1223 14.1213C14.6849 13.5587 15.001 12.7956 15.001 12C15.001 11.2044 14.6849 10.4413 14.1223 9.87868C13.5597 9.31607 12.7966 9 12.001 9ZM12.001 7C13.3271 7 14.5988 7.52678 15.5365 8.46447C16.4742 9.40215 17.001 10.6739 17.001 12C17.001 13.3261 16.4742 14.5979 15.5365 15.5355C14.5988 16.4732 13.3271 17 12.001 17C10.6749 17 9.40312 16.4732 8.46544 15.5355C7.52776 14.5979 7.00098 13.3261 7.00098 12C7.00098 10.6739 7.52776 9.40215 8.46544 8.46447C9.40312 7.52678 10.6749 7 12.001 7ZM18.501 6.75C18.501 7.08152 18.3693 7.39946 18.1349 7.63388C17.9004 7.8683 17.5825 8 17.251 8C16.9195 8 16.6015 7.8683 16.3671 7.63388C16.1327 7.39946 16.001 7.08152 16.001 6.75C16.001 6.41848 16.1327 6.10054 16.3671 5.86612C16.6015 5.6317 16.9195 5.5 17.251 5.5C17.5825 5.5 17.9004 5.6317 18.1349 5.86612C18.3693 6.10054 18.501 6.41848 18.501 6.75ZM12.001 4C9.52698 4 9.12298 4.007 7.97198 4.058C7.18798 4.095 6.66198 4.2 6.17398 4.39C5.76559 4.53994 5.39639 4.78026 5.09398 5.093C4.78098 5.3954 4.54033 5.76458 4.38998 6.173C4.19998 6.663 4.09498 7.188 4.05898 7.971C4.00698 9.075 3.99998 9.461 3.99998 12C3.99998 14.475 4.00698 14.878 4.05798 16.029C4.09498 16.812 4.19998 17.339 4.38898 17.826C4.55898 18.261 4.75898 18.574 5.09098 18.906C5.42798 19.242 5.74098 19.443 6.17098 19.609C6.66498 19.8 7.19098 19.906 7.97098 19.942C9.07498 19.994 9.46098 20 12 20C14.475 20 14.878 19.993 16.029 19.942C16.811 19.905 17.337 19.8 17.826 19.611C18.234 19.4603 18.603 19.2201 18.906 18.908C19.243 18.572 19.444 18.259 19.61 17.828C19.8 17.336 19.906 16.81 19.942 16.028C19.994 14.925 20 14.538 20 12C20 9.526 19.993 9.122 19.942 7.971C19.905 7.189 19.799 6.661 19.61 6.173C19.4592 5.76502 19.219 5.39598 18.907 5.093C18.6047 4.77985 18.2355 4.53917 17.827 4.389C17.337 4.199 16.811 4.094 16.029 4.058C14.926 4.006 14.541 4 12.001 4ZM12.001 2C14.718 2 15.057 2.01 16.124 2.06C17.188 2.11 17.914 2.277 18.551 2.525C19.211 2.779 19.767 3.123 20.323 3.678C20.8315 4.1779 21.2249 4.78259 21.476 5.45C21.723 6.087 21.891 6.813 21.941 7.878C21.988 8.944 22.001 9.283 22.001 12C22.001 14.717 21.991 15.056 21.941 16.122C21.891 17.187 21.723 17.912 21.476 18.55C21.2256 19.2178 20.8321 19.8226 20.323 20.322C19.8229 20.8303 19.2183 21.2238 18.551 21.475C17.914 21.722 17.188 21.89 16.124 21.94C15.057 21.987 14.718 22 12.001 22C9.28398 22 8.94498 21.99 7.87798 21.94C6.81398 21.89 6.08898 21.722 5.45098 21.475C4.7833 21.2245 4.1785 20.8309 3.67898 20.322C3.17041 19.8222 2.77694 19.2175 2.52598 18.55C2.27798 17.913 2.11098 17.187 2.06098 16.122C2.01298 15.056 2.00098 14.717 2.00098 12C2.00098 9.283 2.01098 8.944 2.06098 7.878C2.11098 6.812 2.27798 6.088 2.52598 5.45C2.77621 4.78218 3.16978 4.17732 3.67898 3.678C4.17865 3.16923 4.78341 2.77573 5.45098 2.525C6.08798 2.277 6.81298 2.11 7.87798 2.06C8.94498 2.013 9.28398 2 12.001 2Z" fill="#13123E"/>
</svg>
