<svg width="31" height="31" viewBox="0 0 31 31" fill="none" xmlns="http://www.w3.org/2000/svg">
<path d="M13.9165 5.16675H5.1665C4.50346 5.16675 3.86758 5.43014 3.39874 5.89898C2.9299 6.36782 2.6665 7.00371 2.6665 7.66675V25.1667C2.6665 25.8298 2.9299 26.4657 3.39874 26.9345C3.86758 27.4034 4.50346 27.6667 5.1665 27.6667H22.6665C23.3295 27.6667 23.9654 27.4034 24.4343 26.9345C24.9031 26.4657 25.1665 25.8298 25.1665 25.1667V16.4167" stroke="#8F8F8F" stroke-width="2" stroke-linecap="round" stroke-linejoin="round"/>
<path d="M23.2915 3.29179C23.7888 2.79451 24.4632 2.51514 25.1665 2.51514C25.8698 2.51514 26.5442 2.79451 27.0415 3.29179C27.5388 3.78907 27.8182 4.46353 27.8182 5.16679C27.8182 5.87005 27.5388 6.54451 27.0415 7.04179L15.1665 18.9168L10.1665 20.1668L11.4165 15.1668L23.2915 3.29179Z" stroke="#8F8F8F" stroke-width="2" stroke-linecap="round" stroke-linejoin="round"/>
</svg>
