<svg width="28" height="28" viewBox="0 0 28 28" fill="none" xmlns="http://www.w3.org/2000/svg">
<path d="M23.36 4.63363C21.508 2.78243 19.1486 1.52198 16.5802 1.01167C14.0118 0.501358 11.3498 0.764109 8.93077 1.76669C6.51172 2.76928 4.44429 4.46667 2.98991 6.64423C1.53553 8.82179 0.75952 11.3817 0.76001 14.0003C0.76001 17.5124 2.15472 20.8807 4.63751 23.3647C7.1203 25.8488 10.4879 27.2452 14 27.247C15.738 27.2477 17.4593 26.908 19.0667 26.247C20.6689 25.5706 22.1264 24.5929 23.36 23.367C24.5902 22.137 25.566 20.6767 26.2318 19.0696C26.8976 17.4624 27.2403 15.7399 27.2403 14.0003C27.2403 12.2607 26.8976 10.5381 26.2318 8.931C25.566 7.32386 24.5902 5.8636 23.36 4.63363ZM22.4267 22.4203C20.5201 24.3351 18.0184 25.5436 15.3333 25.847V17.1003H17.84C18.1936 17.1003 18.5328 16.9598 18.7828 16.7098C19.0329 16.4597 19.1733 16.1206 19.1733 15.767C19.1733 15.4133 19.0329 15.0742 18.7828 14.8242C18.5328 14.5741 18.1936 14.4336 17.84 14.4336H15.3333V10.7803C15.3333 10.4267 15.4738 10.0875 15.7239 9.83749C15.9739 9.58744 16.3131 9.44696 16.6667 9.44696H18.2667C18.6203 9.44696 18.9594 9.30649 19.2095 9.05644C19.4595 8.80639 19.6 8.46725 19.6 8.11363C19.6 7.76001 19.4595 7.42087 19.2095 7.17082C18.9594 6.92077 18.6203 6.7803 18.2667 6.7803H16C15.116 6.7803 14.2681 7.13149 13.643 7.75661C13.0179 8.38173 12.6667 9.22958 12.6667 10.1136V14.4336H10.1733C9.81972 14.4336 9.48058 14.5741 9.23054 14.8242C8.98049 15.0742 8.84001 15.4133 8.84001 15.767C8.84001 16.1206 8.98049 16.4597 9.23054 16.7098C9.48058 16.9598 9.81972 17.1003 10.1733 17.1003H12.6667V25.847C10.1905 25.5645 7.86572 24.5112 6.02061 22.8359C4.1755 21.1605 2.90336 18.9479 2.38388 16.5104C1.86439 14.073 2.12382 11.5339 3.12552 9.25184C4.12721 6.9698 5.82055 5.06014 7.96634 3.79259C10.1121 2.52504 12.6019 1.96368 15.084 2.18779C17.5662 2.4119 19.9151 3.41016 21.7992 5.04156C23.6832 6.67296 25.0071 8.85504 25.5839 11.2796C26.1606 13.7042 25.961 16.2486 25.0133 18.5536C24.4098 19.9979 23.5313 21.3112 22.4267 22.4203Z" fill="#CCCCCC"/>
</svg>
