<svg width="28" height="28" viewBox="0 0 28 28" fill="none" xmlns="http://www.w3.org/2000/svg">
<path d="M14.0013 10.0003C12.9404 10.0003 11.923 10.4218 11.1729 11.1719C10.4227 11.922 10.0013 12.9395 10.0013 14.0003C10.0013 15.0612 10.4227 16.0786 11.1729 16.8288C11.923 17.5789 12.9404 18.0003 14.0013 18.0003C15.0622 18.0003 16.0796 17.5789 16.8297 16.8288C17.5799 16.0786 18.0013 15.0612 18.0013 14.0003C18.0013 12.9395 17.5799 11.922 16.8297 11.1719C16.0796 10.4218 15.0622 10.0003 14.0013 10.0003ZM14.0013 7.33366C15.7694 7.33366 17.4651 8.03604 18.7153 9.28628C19.9656 10.5365 20.668 12.2322 20.668 14.0003C20.668 15.7684 19.9656 17.4641 18.7153 18.7144C17.4651 19.9646 15.7694 20.667 14.0013 20.667C12.2332 20.667 10.5375 19.9646 9.28726 18.7144C8.03701 17.4641 7.33463 15.7684 7.33463 14.0003C7.33463 12.2322 8.03701 10.5365 9.28726 9.28628C10.5375 8.03604 12.2332 7.33366 14.0013 7.33366ZM22.668 7.00033C22.668 7.44235 22.4924 7.86628 22.1798 8.17884C21.8673 8.4914 21.4433 8.66699 21.0013 8.66699C20.5593 8.66699 20.1354 8.4914 19.8228 8.17884C19.5102 7.86628 19.3346 7.44235 19.3346 7.00033C19.3346 6.5583 19.5102 6.13437 19.8228 5.82181C20.1354 5.50925 20.5593 5.33366 21.0013 5.33366C21.4433 5.33366 21.8673 5.50925 22.1798 5.82181C22.4924 6.13437 22.668 6.5583 22.668 7.00033ZM14.0013 3.33366C10.7026 3.33366 10.164 3.34299 8.6293 3.41099C7.58397 3.46033 6.88263 3.60033 6.23197 3.85366C5.68746 4.05358 5.19519 4.37401 4.79197 4.79099C4.37464 5.19419 4.05377 5.68644 3.8533 6.23099C3.59997 6.88433 3.45997 7.58433 3.41197 8.62833C3.34264 10.1003 3.3333 10.615 3.3333 14.0003C3.3333 17.3003 3.34264 17.8377 3.41064 19.3723C3.45997 20.4163 3.59997 21.119 3.85197 21.7683C4.07864 22.3483 4.3453 22.7657 4.78797 23.2083C5.2373 23.6563 5.65464 23.9243 6.22797 24.1457C6.88664 24.4003 7.58797 24.5417 8.62797 24.5897C10.1 24.659 10.6146 24.667 14 24.667C17.3 24.667 17.8373 24.6577 19.372 24.5897C20.4146 24.5403 21.116 24.4003 21.768 24.1483C22.312 23.9474 22.8041 23.6271 23.208 23.211C23.6573 22.763 23.9253 22.3457 24.1466 21.771C24.4 21.115 24.5413 20.4137 24.5893 19.371C24.6586 17.9003 24.6666 17.3843 24.6666 14.0003C24.6666 10.7017 24.6573 10.163 24.5893 8.62833C24.54 7.58566 24.3986 6.88166 24.1466 6.23099C23.9457 5.68701 23.6254 5.19497 23.2093 4.79099C22.8063 4.37345 22.314 4.05255 21.7693 3.85233C21.116 3.59899 20.4146 3.45899 19.372 3.41099C17.9013 3.34166 17.388 3.33366 14.0013 3.33366ZM14.0013 0.666992C17.624 0.666992 18.076 0.680325 19.4986 0.746992C20.9173 0.813659 21.8853 1.03633 22.7346 1.36699C23.6146 1.70566 24.356 2.16433 25.0973 2.90433C25.7753 3.57085 26.2999 4.37711 26.6346 5.26699C26.964 6.11632 27.188 7.08432 27.2546 8.50432C27.3173 9.92566 27.3346 10.3777 27.3346 14.0003C27.3346 17.623 27.3213 18.075 27.2546 19.4963C27.188 20.9163 26.964 21.883 26.6346 22.7337C26.3008 23.624 25.7761 24.4305 25.0973 25.0963C24.4306 25.7741 23.6244 26.2987 22.7346 26.6337C21.8853 26.963 20.9173 27.187 19.4986 27.2537C18.076 27.3163 17.624 27.3337 14.0013 27.3337C10.3786 27.3337 9.92663 27.3203 8.50397 27.2537C7.0853 27.187 6.11864 26.963 5.26797 26.6337C4.37774 26.2996 3.57134 25.7749 2.9053 25.0963C2.22721 24.4299 1.70258 23.6236 1.36797 22.7337C1.0373 21.8843 0.814636 20.9163 0.747969 19.4963C0.683969 18.075 0.667969 17.623 0.667969 14.0003C0.667969 10.3777 0.681302 9.92566 0.747969 8.50432C0.814636 7.08299 1.0373 6.11766 1.36797 5.26699C1.70162 4.37656 2.22637 3.57009 2.9053 2.90433C3.57153 2.22597 4.37787 1.7013 5.26797 1.36699C6.1173 1.03633 7.08397 0.813659 8.50397 0.746992C9.92663 0.684325 10.3786 0.666992 14.0013 0.666992Z" fill="#CCCCCC"/>
</svg>
