<svg width="32" height="32" viewBox="0 0 32 32" fill="none" xmlns="http://www.w3.org/2000/svg">
<path fill-rule="evenodd" clip-rule="evenodd" d="M16 28.2515L16.9616 27.168C18.0526 25.9185 19.0339 24.733 19.9071 23.6054L20.6278 22.6545C23.6374 18.5997 25.1429 15.3814 25.1429 13.0027C25.1429 7.92538 21.0499 3.80957 16 3.80957C10.9501 3.80957 6.85718 7.92538 6.85718 13.0027C6.85718 15.3814 8.3627 18.5997 11.3722 22.6545L12.093 23.6054C13.3386 25.2014 14.6418 26.7501 16 28.2515Z" stroke="#CCCCCC" stroke-width="1.14286" stroke-linecap="round" stroke-linejoin="round"/>
<path d="M16 16.7616C18.1039 16.7616 19.8095 15.056 19.8095 12.9521C19.8095 10.8482 18.1039 9.14258 16 9.14258C13.896 9.14258 12.1904 10.8482 12.1904 12.9521C12.1904 15.056 13.896 16.7616 16 16.7616Z" stroke="#CCCCCC" stroke-width="1.14286" stroke-linecap="round" stroke-linejoin="round"/>
</svg>
