<svg width="65" height="49" viewBox="0 0 65 49" fill="none" xmlns="http://www.w3.org/2000/svg">
<path d="M26.7376 0.159638L31.0283 4.35896L8.29635 25.722L0.262286 25.7215L26.7376 0.159638Z" fill="white"/>
<path d="M30.9365 4.17612L26.9198 8.01024L45.2692 25.9037L53.3029 25.9037L30.9365 4.17612Z" fill="white"/>
<rect x="9.57422" y="7.28033" width="4.56461" height="40.8989" fill="white"/>
<rect x="13.2266" y="48.1792" width="4.74719" height="40.1685" transform="rotate(-90 13.2266 48.1792)" fill="white"/>
<path d="M40.4143 31.237C40.4143 30.9838 40.4572 30.7364 40.5429 30.4949C40.6325 30.2495 40.761 30.0275 40.9285 29.8289C41.096 29.6263 41.3024 29.4666 41.5478 29.3498C41.7932 29.229 42.0717 29.1686 42.3833 29.1686C42.7534 29.1686 43.0689 29.2543 43.3298 29.4257C43.5947 29.5932 43.7895 29.8094 43.9141 30.0743L43.5928 30.2729C43.5032 30.0898 43.3902 29.9457 43.2539 29.8406C43.1176 29.7315 42.9715 29.6536 42.8157 29.6068C42.6638 29.5601 42.5119 29.5367 42.36 29.5367C42.1107 29.5367 41.8906 29.5874 41.6997 29.6886C41.5089 29.786 41.3472 29.9185 41.2148 30.0859C41.0862 30.2495 40.9889 30.4346 40.9227 30.641C40.8564 30.8436 40.8233 31.05 40.8233 31.2603C40.8233 31.4901 40.8623 31.7102 40.9402 31.9206C41.0181 32.1309 41.1271 32.3179 41.2674 32.4815C41.4076 32.6412 41.5712 32.7697 41.7582 32.8671C41.949 32.9606 42.1555 33.0073 42.3775 33.0073C42.5333 33.0073 42.693 32.98 42.8566 32.9255C43.0202 32.871 43.1721 32.7872 43.3123 32.6743C43.4564 32.5613 43.5713 32.4152 43.657 32.2361L43.9959 32.4113C43.9102 32.6178 43.7778 32.7931 43.5986 32.9372C43.4194 33.0813 43.2188 33.1904 42.9968 33.2644C42.7787 33.3384 42.5645 33.3754 42.3541 33.3754C42.0698 33.3754 41.8088 33.315 41.5712 33.1943C41.3336 33.0696 41.1271 32.906 40.9519 32.7035C40.7805 32.497 40.648 32.2672 40.5546 32.014C40.4611 31.757 40.4143 31.4979 40.4143 31.237ZM45.3721 33.3403V30.6527H44.2854V30.2963H46.8562V30.6527H45.7694V33.3403H45.3721ZM48.9512 33.3988C48.698 33.3988 48.4701 33.3325 48.2676 33.2001C48.0689 33.0677 47.9112 32.9041 47.7943 32.7093V34.5848H47.397V30.2963H47.7534V30.8864C47.8742 30.6955 48.0358 30.5417 48.2383 30.4248C48.4409 30.3041 48.6571 30.2437 48.8869 30.2437C49.0972 30.2437 49.29 30.2885 49.4653 30.3781C49.6406 30.4638 49.7925 30.5806 49.921 30.7286C50.0496 30.8767 50.1489 31.0461 50.219 31.237C50.293 31.4239 50.33 31.6187 50.33 31.8212C50.33 32.1056 50.2716 32.3685 50.1548 32.61C50.0418 32.8476 49.8821 33.0385 49.6757 33.1826C49.4692 33.3267 49.2277 33.3988 48.9512 33.3988ZM48.8401 33.0482C49.0076 33.0482 49.1576 33.0151 49.29 32.9489C49.4225 32.8788 49.5354 32.7853 49.6289 32.6684C49.7263 32.5516 49.8003 32.4211 49.8509 32.277C49.9016 32.1289 49.9269 31.977 49.9269 31.8212C49.9269 31.6576 49.8977 31.5018 49.8392 31.3538C49.7847 31.2058 49.7049 31.0753 49.5997 30.9624C49.4945 30.8494 49.3738 30.7598 49.2375 30.6936C49.1011 30.6274 48.9531 30.5943 48.7934 30.5943C48.6921 30.5943 48.587 30.6137 48.4779 30.6527C48.3688 30.6916 48.2637 30.7481 48.1624 30.8221C48.065 30.8922 47.9832 30.9721 47.917 31.0617C47.8508 31.1513 47.8099 31.2467 47.7943 31.348V32.2828C47.8566 32.4269 47.9404 32.5574 48.0455 32.6743C48.1507 32.7872 48.2715 32.8788 48.4078 32.9489C48.548 33.0151 48.6921 33.0482 48.8401 33.0482ZM52.3001 33.3988C52.082 33.3988 51.8794 33.3579 51.6925 33.2761C51.5094 33.1904 51.3497 33.0755 51.2134 32.9313C51.0809 32.7833 50.9777 32.6158 50.9037 32.4289C50.8297 32.238 50.7927 32.0374 50.7927 31.8271C50.7927 31.6089 50.8297 31.4064 50.9037 31.2194C50.9777 31.0286 51.0829 30.8611 51.2192 30.717C51.3555 30.5689 51.5152 30.454 51.6983 30.3722C51.8853 30.2865 52.0878 30.2437 52.306 30.2437C52.5241 30.2437 52.7247 30.2865 52.9078 30.3722C53.0908 30.454 53.2505 30.5689 53.3869 30.717C53.5232 30.8611 53.6284 31.0286 53.7024 31.2194C53.7764 31.4064 53.8134 31.6089 53.8134 31.8271C53.8134 32.0374 53.7764 32.238 53.7024 32.4289C53.6284 32.6158 53.5232 32.7833 53.3869 32.9313C53.2544 33.0755 53.0947 33.1904 52.9078 33.2761C52.7247 33.3579 52.5221 33.3988 52.3001 33.3988ZM51.1958 31.8329C51.1958 32.0588 51.2445 32.2653 51.3419 32.4522C51.4432 32.6353 51.5776 32.7814 51.7451 32.8904C51.9126 32.9956 52.0976 33.0482 52.3001 33.0482C52.5027 33.0482 52.6877 32.9937 52.8552 32.8846C53.0227 32.7755 53.157 32.6275 53.2583 32.4406C53.3596 32.2497 53.4102 32.0433 53.4102 31.8212C53.4102 31.5953 53.3596 31.3889 53.2583 31.2019C53.157 31.0149 53.0227 30.8669 52.8552 30.7579C52.6877 30.6488 52.5027 30.5943 52.3001 30.5943C52.0976 30.5943 51.9126 30.6507 51.7451 30.7637C51.5815 30.8767 51.449 31.0266 51.3478 31.2136C51.2465 31.3967 51.1958 31.6031 51.1958 31.8329ZM54.472 33.3403V30.3021H54.8693V32.8028L56.7214 30.2963H57.0778V33.3403H56.6805V30.8806L54.8576 33.3403H54.472ZM55.7808 29.9107C55.5159 29.9107 55.3114 29.8483 55.1673 29.7237C55.0232 29.5991 54.9511 29.4413 54.9511 29.2504H55.2432C55.2432 29.3673 55.2861 29.4647 55.3718 29.5426C55.4614 29.6205 55.5977 29.6594 55.7808 29.6594C55.9599 29.6594 56.0904 29.6224 56.1722 29.5484C56.2579 29.4744 56.3066 29.3751 56.3183 29.2504H56.6046C56.6046 29.4413 56.5325 29.5991 56.3884 29.7237C56.2443 29.8483 56.0417 29.9107 55.7808 29.9107ZM57.9411 33.3403V30.2963H58.3384V31.5992H58.7941L59.8166 30.2963H60.2723L59.1096 31.7745L60.4184 33.3403H59.951L58.7941 31.9673H58.3384V33.3403H57.9411ZM60.7256 32.4639C60.7256 32.2731 60.7801 32.1095 60.8892 31.9731C60.9983 31.8329 61.1482 31.7258 61.3391 31.6518C61.5338 31.5739 61.7578 31.5349 62.011 31.5349C62.159 31.5349 62.3129 31.5466 62.4726 31.57C62.6323 31.5934 62.7744 31.6284 62.8991 31.6752V31.4181C62.8991 31.161 62.8231 30.9565 62.6712 30.8046C62.5193 30.6527 62.309 30.5767 62.0402 30.5767C61.8766 30.5767 61.715 30.6079 61.5553 30.6702C61.3995 30.7286 61.2359 30.8163 61.0645 30.9331L60.9126 30.6527C61.1112 30.5164 61.306 30.4151 61.4968 30.3489C61.6877 30.2788 61.8825 30.2437 62.0811 30.2437C62.455 30.2437 62.7511 30.3508 62.9692 30.5651C63.1873 30.7793 63.2964 31.0753 63.2964 31.4531V32.8612C63.2964 32.9158 63.3081 32.9567 63.3314 32.9839C63.3548 33.0073 63.3918 33.0209 63.4425 33.0248V33.3403C63.3996 33.3442 63.3626 33.3481 63.3314 33.352C63.3003 33.3559 63.2769 33.3559 63.2613 33.352C63.164 33.3481 63.09 33.317 63.0393 33.2585C62.9887 33.2001 62.9614 33.1378 62.9575 33.0716L62.9517 32.8495C62.8153 33.0248 62.6381 33.1612 62.42 33.2585C62.2019 33.352 61.9798 33.3988 61.7539 33.3988C61.5592 33.3988 61.3819 33.3579 61.2222 33.2761C61.0664 33.1904 60.9437 33.0774 60.8541 32.9372C60.7685 32.7931 60.7256 32.6353 60.7256 32.4639ZM62.7647 32.6976C62.8076 32.6431 62.8407 32.5905 62.864 32.5399C62.8874 32.4892 62.8991 32.4445 62.8991 32.4055V31.9615C62.7667 31.9108 62.6284 31.8719 62.4843 31.8446C62.344 31.8173 62.2019 31.8037 62.0577 31.8037C61.7734 31.8037 61.5436 31.8602 61.3683 31.9731C61.193 32.0861 61.1054 32.24 61.1054 32.4347C61.1054 32.5477 61.1346 32.6548 61.193 32.7561C61.2514 32.8534 61.3371 32.9352 61.4501 33.0015C61.5631 33.0638 61.6955 33.0949 61.8474 33.0949C62.0383 33.0949 62.2155 33.0579 62.3791 32.9839C62.5466 32.9099 62.6751 32.8145 62.7647 32.6976ZM40.6889 40.3403V36.192H42.4067C42.5859 36.192 42.7495 36.229 42.8975 36.303C43.0494 36.377 43.1799 36.4783 43.2889 36.6068C43.398 36.7315 43.4837 36.8717 43.546 37.0275C43.6083 37.1794 43.6395 37.3352 43.6395 37.4949C43.6395 37.7209 43.5889 37.9351 43.4876 38.1376C43.3902 38.3363 43.2519 38.4979 43.0728 38.6226C42.8936 38.7472 42.6833 38.8095 42.4418 38.8095H41.0979V40.3403H40.6889ZM41.0979 38.4473H42.4242C42.5878 38.4473 42.73 38.4025 42.8507 38.3129C42.9715 38.2233 43.065 38.1065 43.1312 37.9624C43.1974 37.8182 43.2305 37.6624 43.2305 37.4949C43.2305 37.3236 43.1916 37.1658 43.1137 37.0217C43.0358 36.8776 42.9325 36.7646 42.804 36.6828C42.6794 36.5971 42.5411 36.5543 42.3892 36.5543H41.0979V38.4473ZM45.5563 40.3988C45.3382 40.3988 45.1356 40.3579 44.9487 40.2761C44.7617 40.1904 44.6001 40.0755 44.4637 39.9313C44.3274 39.7833 44.2203 39.6139 44.1424 39.423C44.0684 39.2322 44.0314 39.0277 44.0314 38.8095C44.0314 38.5252 44.0956 38.2642 44.2242 38.0266C44.3566 37.789 44.5377 37.6001 44.7676 37.4599C44.9974 37.3158 45.2583 37.2437 45.5505 37.2437C45.8504 37.2437 46.1114 37.3158 46.3334 37.4599C46.5593 37.604 46.7365 37.7949 46.8651 38.0325C46.9936 38.2662 47.0579 38.5233 47.0579 38.8037C47.0579 38.8349 47.0579 38.866 47.0579 38.8972C47.0579 38.9245 47.0559 38.9459 47.0521 38.9615H44.4462C44.4657 39.1796 44.5261 39.3743 44.6273 39.5457C44.7325 39.7132 44.8669 39.8476 45.0305 39.9489C45.198 40.0462 45.3791 40.0949 45.5739 40.0949C45.7725 40.0949 45.9595 40.0443 46.1347 39.943C46.3139 39.8418 46.4386 39.7093 46.5087 39.5457L46.8534 39.6392C46.7911 39.7833 46.6956 39.9138 46.5671 40.0307C46.4386 40.1475 46.2867 40.2391 46.1114 40.3053C45.94 40.3676 45.755 40.3988 45.5563 40.3988ZM44.4345 38.6752H46.684C46.6684 38.4531 46.608 38.2584 46.5028 38.0909C46.4016 37.9234 46.2672 37.7929 46.0997 37.6994C45.9361 37.6021 45.755 37.5534 45.5563 37.5534C45.3577 37.5534 45.1765 37.6021 45.013 37.6994C44.8494 37.7929 44.715 37.9254 44.6098 38.0967C44.5085 38.2642 44.4501 38.457 44.4345 38.6752ZM47.665 40.3403V37.2963H48.074L49.2835 39.3938L50.4987 37.2963H50.8902V40.3403H50.5104V37.8922L49.412 39.797H49.1549L48.0448 37.8922V40.3403H47.665ZM53.0647 40.3988C52.8466 40.3988 52.644 40.3579 52.457 40.2761C52.274 40.1904 52.1143 40.0755 51.9779 39.9313C51.8455 39.7833 51.7423 39.6158 51.6683 39.4289C51.5943 39.238 51.5573 39.0374 51.5573 38.8271C51.5573 38.6089 51.5943 38.4064 51.6683 38.2194C51.7423 38.0286 51.8475 37.8611 51.9838 37.717C52.1201 37.5689 52.2798 37.454 52.4629 37.3722C52.6499 37.2865 52.8524 37.2437 53.0705 37.2437C53.2887 37.2437 53.4893 37.2865 53.6723 37.3722C53.8554 37.454 54.0151 37.5689 54.1514 37.717C54.2878 37.8611 54.3929 38.0286 54.4669 38.2194C54.5409 38.4064 54.5779 38.6089 54.5779 38.8271C54.5779 39.0374 54.5409 39.238 54.4669 39.4289C54.3929 39.6158 54.2878 39.7833 54.1514 39.9313C54.019 40.0755 53.8593 40.1904 53.6723 40.2761C53.4893 40.3579 53.2867 40.3988 53.0647 40.3988ZM51.9604 38.8329C51.9604 39.0588 52.0091 39.2653 52.1065 39.4522C52.2078 39.6353 52.3421 39.7814 52.5096 39.8904C52.6771 39.9956 52.8621 40.0482 53.0647 40.0482C53.2672 40.0482 53.4523 39.9937 53.6197 39.8846C53.7872 39.7755 53.9216 39.6275 54.0229 39.4406C54.1242 39.2497 54.1748 39.0433 54.1748 38.8212C54.1748 38.5953 54.1242 38.3889 54.0229 38.2019C53.9216 38.0149 53.7872 37.8669 53.6197 37.7579C53.4523 37.6488 53.2672 37.5943 53.0647 37.5943C52.8621 37.5943 52.6771 37.6507 52.5096 37.7637C52.346 37.8767 52.2136 38.0266 52.1123 38.2136C52.0111 38.3967 51.9604 38.6031 51.9604 38.8329ZM55.2366 40.3403V37.2963H55.6339V38.6051H57.375V37.2963H57.7723V40.3403H57.375V38.9615H55.6339V40.3403H55.2366ZM59.4083 40.3403V37.6527H58.3216V37.2963H60.8924V37.6527H59.8056V40.3403H59.4083Z" fill="white"/>
<rect x="28.1182" y="35.1917" width="5.11236" height="4.92978" fill="white"/>
<g clip-path="url(#clip0_28_159)">
<path d="M29.6094 38.7444H30.4615C30.4897 38.7444 30.5168 38.734 30.5368 38.7154C30.5568 38.6969 30.568 38.6717 30.568 38.6455V36.6675C30.568 36.6413 30.5568 36.6161 30.5368 36.5976C30.5168 36.579 30.4897 36.5686 30.4615 36.5686H29.6094C29.5812 36.5686 29.5541 36.579 29.5341 36.5976C29.5142 36.6161 29.5029 36.6413 29.5029 36.6675V38.6455C29.5029 38.6717 29.5142 38.6969 29.5341 38.7154C29.5541 38.734 29.5812 38.7444 29.6094 38.7444ZM30.355 36.7664V38.5466H29.7159V38.3488H30.0355C30.0637 38.3488 30.0908 38.3384 30.1108 38.3198C30.1308 38.3013 30.142 38.2761 30.142 38.2499C30.142 38.2237 30.1308 38.1985 30.1108 38.18C30.0908 38.1614 30.0637 38.151 30.0355 38.151H29.7159V37.9532H30.0355C30.0637 37.9532 30.0908 37.9428 30.1108 37.9242C30.1308 37.9057 30.142 37.8805 30.142 37.8543C30.142 37.8281 30.1308 37.8029 30.1108 37.7844C30.0908 37.7658 30.0637 37.7554 30.0355 37.7554H29.7159V37.5576H30.0355C30.0637 37.5576 30.0908 37.5472 30.1108 37.5286C30.1308 37.5101 30.142 37.4849 30.142 37.4587C30.142 37.4325 30.1308 37.4073 30.1108 37.3888C30.0908 37.3702 30.0637 37.3598 30.0355 37.3598H29.7159V37.162H30.0355C30.0637 37.162 30.0908 37.1516 30.1108 37.133C30.1308 37.1145 30.142 37.0893 30.142 37.0631C30.142 37.0369 30.1308 37.0117 30.1108 36.9932C30.0908 36.9746 30.0637 36.9642 30.0355 36.9642H29.7159V36.7664H30.355ZM31.8461 38.151V36.6675C31.8461 36.6413 31.8349 36.6161 31.8149 36.5976C31.7949 36.579 31.7678 36.5686 31.7396 36.5686H31.1005C31.0723 36.5686 31.0452 36.579 31.0252 36.5976C31.0053 36.6161 30.994 36.6413 30.994 36.6675V38.151C30.994 38.1689 30.9993 38.1866 31.0093 38.2019L31.3288 38.6964C31.3383 38.7111 31.3516 38.7232 31.3676 38.7316C31.3836 38.74 31.4017 38.7444 31.4201 38.7444C31.4384 38.7444 31.4565 38.74 31.4725 38.7316C31.4885 38.7232 31.5019 38.7111 31.5113 38.6964L31.8309 38.2019C31.8408 38.1866 31.8461 38.1689 31.8461 38.151ZM31.6331 36.7664V36.9642H31.207V36.7664H31.6331ZM31.4201 38.4532L31.207 38.1236V37.162H31.6331V38.1236L31.4201 38.4532Z" fill="black"/>
</g>
<rect x="19.9014" y="26.793" width="5.11236" height="4.92978" fill="white"/>
<rect x="28.1182" y="26.7928" width="5.11236" height="4.92978" fill="white"/>
<rect x="19.9014" y="35.1914" width="5.11236" height="4.92978" fill="white"/>
<path d="M22.2742 30.4443V29.7139H21.5439C21.4955 29.7139 21.449 29.6947 21.4148 29.6605C21.3806 29.6262 21.3613 29.5798 21.3613 29.5314C21.3613 29.4829 21.3806 29.4365 21.4148 29.4023C21.449 29.368 21.4955 29.3488 21.5439 29.3488H22.2742V28.6184C22.2742 28.57 22.2935 28.5236 22.3277 28.4893C22.362 28.4551 22.4084 28.4359 22.4568 28.4359C22.5053 28.4359 22.5517 28.4551 22.5859 28.4893C22.6202 28.5236 22.6394 28.57 22.6394 28.6184V29.3488H23.3698C23.4182 29.3488 23.4646 29.368 23.4989 29.4023C23.5331 29.4365 23.5523 29.4829 23.5523 29.5314C23.5523 29.5798 23.5331 29.6262 23.4989 29.6605C23.4646 29.6947 23.4182 29.7139 23.3698 29.7139H22.6394V30.4443C22.6394 30.4927 22.6202 30.5391 22.5859 30.5734C22.5517 30.6076 22.5053 30.6269 22.4568 30.6269C22.4084 30.6269 22.362 30.6076 22.3277 30.5734C22.2935 30.5391 22.2742 30.4927 22.2742 30.4443Z" fill="black"/>
<path d="M23.3156 37.1464L22.7144 37.7476L23.3156 38.3489C23.333 38.3657 23.347 38.3859 23.3565 38.4081C23.3661 38.4304 23.3711 38.4544 23.3713 38.4786C23.3715 38.5029 23.3669 38.5269 23.3577 38.5493C23.3486 38.5718 23.335 38.5922 23.3179 38.6093C23.3007 38.6265 23.2803 38.64 23.2579 38.6492C23.2355 38.6584 23.2114 38.663 23.1872 38.6628C23.1629 38.6626 23.139 38.6575 23.1167 38.648C23.0944 38.6384 23.0743 38.6245 23.0574 38.607L22.4562 38.0058L21.8549 38.607C21.8381 38.6245 21.8179 38.6384 21.7957 38.648C21.7734 38.6575 21.7494 38.6626 21.7252 38.6628C21.7009 38.663 21.6769 38.6584 21.6545 38.6492C21.632 38.64 21.6116 38.6265 21.5945 38.6093C21.5773 38.5922 21.5638 38.5718 21.5546 38.5493C21.5454 38.5269 21.5408 38.5029 21.541 38.4786C21.5412 38.4544 21.5463 38.4304 21.5558 38.4081C21.5654 38.3859 21.5793 38.3657 21.5968 38.3489L22.198 37.7476L21.5968 37.1464C21.5793 37.1295 21.5654 37.1094 21.5558 37.0871C21.5463 37.0648 21.5412 37.0409 21.541 37.0166C21.5408 36.9924 21.5454 36.9683 21.5546 36.9459C21.5638 36.9235 21.5773 36.9031 21.5945 36.8859C21.6116 36.8688 21.632 36.8552 21.6545 36.8461C21.6769 36.8369 21.7009 36.8323 21.7252 36.8325C21.7494 36.8327 21.7734 36.8377 21.7957 36.8473C21.8179 36.8569 21.8381 36.8708 21.8549 36.8882L22.4562 37.4894L23.0574 36.8882C23.0743 36.8708 23.0944 36.8569 23.1167 36.8473C23.139 36.8377 23.1629 36.8327 23.1872 36.8325C23.2114 36.8323 23.2355 36.8369 23.2579 36.8461C23.2803 36.8552 23.3007 36.8688 23.3179 36.8859C23.335 36.9031 23.3486 36.9235 23.3577 36.9459C23.3669 36.9683 23.3715 36.9924 23.3713 37.0166C23.3711 37.0409 23.3661 37.0648 23.3565 37.0871C23.347 37.1094 23.333 37.1295 23.3156 37.1464Z" fill="black"/>
<path d="M29.5801 29.5313C29.5801 29.4829 29.5993 29.4365 29.6336 29.4022C29.6678 29.368 29.7142 29.3488 29.7627 29.3488H31.5885C31.6369 29.3488 31.6834 29.368 31.7176 29.4022C31.7519 29.4365 31.7711 29.4829 31.7711 29.5313C31.7711 29.5798 31.7519 29.6262 31.7176 29.6604C31.6834 29.6947 31.6369 29.7139 31.5885 29.7139H29.7627C29.7142 29.7139 29.6678 29.6947 29.6336 29.6604C29.5993 29.6262 29.5801 29.5798 29.5801 29.5313Z" fill="black"/>
<defs>
<clipPath id="clip0_28_159">
<rect width="2.55618" height="2.3736" fill="white" transform="translate(29.3965 36.4697)"/>
</clipPath>
</defs>
</svg>
