<svg width="34" height="40" viewBox="0 0 34 40" fill="none" xmlns="http://www.w3.org/2000/svg">
<path d="M29.4299 25.0467L23.1559 21.7389C22.8716 21.5956 22.5614 21.538 22.2535 21.5713C21.9455 21.6046 21.6494 21.7277 21.3921 21.9295C21.366 21.9493 21.3412 21.9712 21.3177 21.9952L18.0386 25.2764C18.0046 25.2982 17.9667 25.3104 17.928 25.3121C17.8893 25.3137 17.8507 25.3047 17.8155 25.2858C15.7077 24.0889 13.5243 21.5358 12.503 19.0905C12.486 19.0496 12.4771 19.0047 12.4771 18.9592C12.4771 18.9137 12.486 18.8688 12.503 18.828L15.3013 14.9217C15.3214 14.8928 15.34 14.8626 15.3571 14.8311C15.5263 14.5272 15.6285 14.1785 15.6545 13.8165C15.6804 13.4545 15.6294 13.0906 15.5059 12.7577L12.7142 5.38891C12.5556 4.95392 12.2814 4.59116 11.9328 4.35507C11.5841 4.11898 11.1797 4.0223 10.7804 4.07953C9.04485 4.34796 7.45174 5.35069 6.29881 6.90031C5.14588 8.44994 4.512 10.4404 4.51564 12.4998C4.51564 24.7342 12.9758 34.6873 23.375 34.6873C25.1254 34.6913 26.8172 33.9454 28.1343 32.5891C29.4515 31.2328 30.3038 29.3587 30.5323 27.317C30.5808 26.8494 30.4998 26.3759 30.3011 25.9668C30.1025 25.5577 29.797 25.235 29.4299 25.0467ZM23.375 32.8123C13.855 32.8123 6.10939 23.6998 6.10939 12.4998C6.10495 10.8966 6.59682 9.34631 7.49309 8.13861C8.38937 6.93091 9.62873 6.14842 10.9796 5.93735H11.0102C11.0637 5.93852 11.1157 5.95869 11.1593 5.99522C11.2029 6.03174 11.2361 6.08292 11.2545 6.14203L14.0569 13.503C14.0729 13.5439 14.0811 13.5884 14.0811 13.6334C14.0811 13.6785 14.0729 13.723 14.0569 13.7639L11.2532 17.6795C11.2323 17.7075 11.2132 17.7373 11.1961 17.7686C11.0207 18.0837 10.9174 18.4467 10.8962 18.8226C10.875 19.1984 10.9367 19.5743 11.0753 19.9139C12.2533 22.7514 14.6838 25.5889 17.1222 26.9748C17.4125 27.137 17.7336 27.2078 18.0541 27.1804C18.3746 27.153 18.6837 27.0283 18.951 26.8186C18.9763 26.7983 19.0015 26.7764 19.0254 26.753L22.3032 23.4717C22.3356 23.4513 22.3713 23.4393 22.408 23.4366C22.4447 23.4339 22.4814 23.4405 22.5157 23.4561L28.7911 26.7639C28.8424 26.7896 28.8855 26.8336 28.9143 26.8897C28.9431 26.9457 28.9563 27.0111 28.9518 27.0764C28.7733 28.6664 28.1089 30.1256 27.0825 31.1812C26.0562 32.2368 24.7383 32.8167 23.375 32.8123Z" fill="#D0CB5D"/>
</svg>
