<svg width="27" height="31" viewBox="0 0 27 31" fill="none" xmlns="http://www.w3.org/2000/svg">
<path d="M25.4299 21.0469L19.1559 17.7391C18.8716 17.5958 18.5614 17.5382 18.2535 17.5715C17.9455 17.6047 17.6494 17.7279 17.3921 17.9297C17.366 17.9494 17.3412 17.9714 17.3177 17.9953L14.0386 21.2766C14.0046 21.2984 13.9667 21.3106 13.928 21.3123C13.8893 21.3139 13.8507 21.3049 13.8155 21.286C11.7077 20.0891 9.52431 17.536 8.50298 15.0907C8.48598 15.0498 8.47714 15.0049 8.47714 14.9594C8.47714 14.9139 8.48598 14.869 8.50298 14.8282L11.3013 10.9219C11.3214 10.893 11.34 10.8627 11.3571 10.8313C11.5263 10.5274 11.6285 10.1787 11.6545 9.8167C11.6804 9.45471 11.6294 9.0908 11.5059 8.75784L8.71416 1.38909C8.55562 0.954105 8.28144 0.591345 7.93277 0.355255C7.5841 0.119165 7.17975 0.0224821 6.78041 0.0797159C5.04485 0.348148 3.45174 1.35087 2.29881 2.9005C1.14588 4.45013 0.512002 6.44063 0.515641 8.50003C0.515641 20.7344 8.9758 30.6875 19.375 30.6875C21.1254 30.6915 22.8172 29.9456 24.1343 28.5893C25.4515 27.233 26.3038 25.3589 26.5323 23.3172C26.5808 22.8496 26.4998 22.376 26.3011 21.967C26.1025 21.5579 25.797 21.2352 25.4299 21.0469ZM19.375 28.8125C9.85502 28.8125 2.10939 19.7 2.10939 8.50003C2.10495 6.89679 2.59682 5.3465 3.49309 4.13879C4.38937 2.93109 5.62873 2.1486 6.97962 1.93753H7.01017C7.06369 1.9387 7.11566 1.95888 7.15927 1.9954C7.20288 2.03193 7.23609 2.0831 7.25455 2.14222L10.0569 9.50315C10.0729 9.54408 10.0811 9.58858 10.0811 9.63362C10.0811 9.67866 10.0729 9.72317 10.0569 9.76409L7.25322 13.6797C7.2323 13.7077 7.21321 13.7374 7.19611 13.7688C7.02067 14.0839 6.91736 14.4469 6.89619 14.8228C6.87501 15.1986 6.93669 15.5745 7.07525 15.9141C8.2533 18.7516 10.6838 21.5891 13.1222 22.975C13.4125 23.1371 13.7336 23.208 14.0541 23.1806C14.3746 23.1532 14.6837 23.0285 14.951 22.8188C14.9763 22.7985 15.0015 22.7766 15.0254 22.7532L18.3032 19.4719C18.3356 19.4514 18.3713 19.4394 18.408 19.4368C18.4447 19.4341 18.4814 19.4407 18.5157 19.4563L24.7911 22.7641C24.8424 22.7898 24.8855 22.8338 24.9143 22.8898C24.9431 22.9459 24.9563 23.0113 24.9518 23.0766C24.7733 24.6666 24.1089 26.1258 23.0825 27.1814C22.0562 28.237 20.7383 28.8168 19.375 28.8125Z" fill="#2C52A0"/>
</svg>
