<svg width="28" height="25" viewBox="0 0 28 25" fill="none" xmlns="http://www.w3.org/2000/svg">
<path d="M27.4462 0.46283C27.3256 0.358666 27.1788 0.28941 27.0218 0.262535C26.8647 0.23566 26.7033 0.252186 26.5549 0.31033L1.22243 10.2241C0.914306 10.3446 0.653615 10.5619 0.479507 10.8433C0.305398 11.1246 0.227271 11.4549 0.256858 11.7844C0.286446 12.114 0.42215 12.425 0.643592 12.6709C0.865033 12.9167 1.16026 13.0841 1.48493 13.1478L8.24993 14.4766V22.0003C8.25007 22.3491 8.35444 22.6899 8.54964 22.979C8.74484 23.2681 9.02197 23.4922 9.34547 23.6226C9.66896 23.7531 10.024 23.7839 10.3652 23.7111C10.7063 23.6383 11.0179 23.4652 11.2599 23.2141L14.5899 19.7603L19.7874 24.3166C20.1048 24.5974 20.5137 24.7525 20.9374 24.7528C21.1225 24.7524 21.3063 24.7233 21.4824 24.6666C21.7712 24.5752 22.0309 24.4097 22.2358 24.1867C22.4406 23.9636 22.5834 23.6908 22.6499 23.3953L27.7274 1.32158C27.7631 1.1664 27.7558 1.00442 27.7062 0.853089C27.6567 0.701763 27.5668 0.56683 27.4462 0.46283ZM1.75618 11.6716C1.75139 11.6587 1.75139 11.6445 1.75618 11.6316C1.76183 11.6272 1.76816 11.6238 1.77493 11.6216L21.7387 3.80658L8.82618 13.0566L1.77493 11.6766L1.75618 11.6716ZM10.1799 22.1716C10.1455 22.2073 10.1012 22.232 10.0526 22.2425C10.0041 22.2529 9.95355 22.2487 9.90742 22.2304C9.8613 22.212 9.82169 22.1803 9.79364 22.1393C9.76559 22.0984 9.75037 22.05 9.74993 22.0003V15.5141L13.4612 18.7641L10.1799 22.1716ZM21.1887 23.0566C21.1795 23.0988 21.1591 23.1379 21.1296 23.1695C21.1001 23.2012 21.0627 23.2243 21.0212 23.2366C20.9789 23.2514 20.9333 23.2546 20.8893 23.2458C20.8453 23.237 20.8045 23.2166 20.7712 23.1866L10.2049 13.9178L25.8749 2.68783L21.1887 23.0566Z" fill="#CCCCCC"/>
</svg>
