<svg width="30" height="25" viewBox="0 0 30 25" fill="none" xmlns="http://www.w3.org/2000/svg">
<path fill-rule="evenodd" clip-rule="evenodd" d="M19.0279 0.457289C19.7066 0.341289 20.4652 0.302622 21.1799 0.423956C22.4529 0.638981 23.6324 1.23013 24.5665 2.12129C25.1745 2.13462 25.7732 2.01462 26.3025 1.84396C26.8141 1.67712 27.3053 1.45303 27.7666 1.17596L27.7785 1.16796C27.9706 1.04003 28.2009 0.982428 28.4305 1.00492C28.6601 1.02741 28.8749 1.1286 29.0384 1.29135C29.202 1.4541 29.3042 1.66839 29.3278 1.89789C29.3514 2.1274 29.2949 2.35801 29.1679 2.55062C28.8919 2.97062 28.5065 3.71996 28.0759 4.55996L27.8692 4.96129C27.6226 5.44129 27.3692 5.92662 27.1332 6.34262C26.9852 6.60396 26.8265 6.86929 26.6665 7.09862V7.46395C26.6829 9.64881 26.264 11.815 25.4342 13.8363C24.6044 15.8575 23.3803 17.6931 21.8335 19.2362C20.2866 20.7792 18.4478 21.9987 16.4246 22.8235C14.4013 23.6483 12.234 24.0618 10.0492 24.04C6.88314 24.0428 3.78369 23.1307 1.12388 21.4133C0.93377 21.2903 0.791014 21.1065 0.718968 20.8918C0.646922 20.6772 0.649852 20.4444 0.727279 20.2317C0.804705 20.0189 0.952044 19.8387 1.14519 19.7206C1.33834 19.6024 1.56587 19.5533 1.79055 19.5813C3.62771 19.8009 5.48972 19.5045 7.16788 18.7253C6.34913 18.3531 5.61686 17.8144 5.01771 17.1437C4.41856 16.4729 3.96567 15.6847 3.68788 14.8293C3.63495 14.6655 3.62518 14.4909 3.65952 14.3222C3.69386 14.1536 3.77114 13.9967 3.88388 13.8666L3.89722 13.8533C3.2204 13.2503 2.67797 12.5117 2.30515 11.6854C1.93234 10.8592 1.73748 9.96375 1.73322 9.05729V8.98796C1.73312 8.76843 1.80526 8.55497 1.93852 8.38051C2.07177 8.20605 2.25873 8.08029 2.47055 8.02262C2.01905 7.12174 1.7848 6.12764 1.78655 5.11996C1.78579 3.97752 2.08462 2.85485 2.65322 1.86396C2.734 1.72329 2.84779 1.60439 2.98477 1.51751C3.12175 1.43063 3.2778 1.37837 3.43948 1.36525C3.60116 1.35213 3.7636 1.37853 3.9128 1.44218C4.062 1.50584 4.19347 1.60483 4.29588 1.73062C6.62814 4.60387 9.96946 6.47817 13.6372 6.97062C13.6054 5.77087 13.908 4.58592 14.5113 3.5484C15.1146 2.51088 15.9948 1.66172 17.0532 1.09596C17.5892 0.810622 18.2986 0.582622 19.0292 0.457289H19.0279ZM3.99055 10.5213C4.24947 11.25 4.69313 11.899 5.27813 12.4047C5.86313 12.9105 6.56942 13.2557 7.32788 13.4066C7.5464 13.4502 7.74412 13.5654 7.88967 13.7341C8.03521 13.9028 8.12025 14.1153 8.13128 14.3379C8.1423 14.5604 8.07869 14.7802 7.95054 14.9625C7.82238 15.1448 7.63703 15.279 7.42388 15.344C7.06122 15.4546 6.68922 15.5306 6.31188 15.5746C6.72155 16.1031 7.24436 16.533 7.84195 16.833C8.43953 17.1329 9.0967 17.2952 9.76522 17.308C9.97143 17.3118 10.1714 17.3794 10.3377 17.5014C10.504 17.6233 10.6286 17.7937 10.6943 17.9892C10.76 18.1847 10.7636 18.3957 10.7047 18.5934C10.6458 18.791 10.5272 18.9657 10.3652 19.0933C8.97488 20.1872 7.35918 20.9591 5.63455 21.3533C7.06237 21.8103 8.5527 22.042 10.0519 22.04H10.0639C11.9839 22.0602 13.8887 21.6976 15.667 20.9734C17.4453 20.2491 19.0614 19.1777 20.4209 17.8218C21.7805 16.4659 22.8561 14.8526 23.5851 13.0762C24.3141 11.2999 24.6817 9.39602 24.6665 7.47596V6.76262C24.6663 6.51981 24.7545 6.28522 24.9146 6.10262C25.0079 5.99729 25.1679 5.75462 25.3946 5.35596C25.6079 4.97996 25.8452 4.52662 26.0919 4.04796L26.1359 3.95996C25.4394 4.11669 24.7222 4.16036 24.0119 4.08929C23.7717 4.06312 23.5491 3.95087 23.3852 3.77329C22.7147 3.0462 21.8218 2.56223 20.8466 2.39729C20.3547 2.32771 19.8548 2.33897 19.3666 2.43062C18.8907 2.5047 18.4286 2.64988 17.9959 2.86129C17.1234 3.32743 16.4304 4.06998 16.0255 4.97248C15.6206 5.87497 15.5267 6.88635 15.7586 7.84796C15.795 7.99917 15.7958 8.1568 15.7606 8.30834C15.7255 8.45987 15.6555 8.60113 15.5563 8.72087C15.457 8.84061 15.3311 8.93554 15.1887 8.99811C15.0463 9.06067 14.8912 9.08916 14.7359 9.08129C10.6393 8.87408 6.76636 7.15028 3.87055 4.24529C3.81429 4.53389 3.78616 4.82726 3.78655 5.12129V5.12396C3.78505 5.85828 3.96517 6.58159 4.31085 7.22946C4.65654 7.87734 5.15707 8.42967 5.76788 8.83729C5.94725 8.95801 6.08266 9.13362 6.15382 9.33779C6.22497 9.54196 6.22804 9.76369 6.16256 9.96975C6.09707 10.1758 5.96657 10.3551 5.79061 10.4807C5.61465 10.6064 5.40271 10.6716 5.18655 10.6666C4.78416 10.6555 4.38372 10.6077 3.99055 10.5213Z" fill="#CCCCCC"/>
</svg>
