<svg width="18" height="18" viewBox="0 0 18 18" fill="none" xmlns="http://www.w3.org/2000/svg">
<path d="M14.3006 14.7698C14.3024 14.4598 14.1921 14.1596 13.99 13.9246C13.7876 13.6892 13.507 13.5351 13.1999 13.4906L13.1977 13.4903C10.0849 13.0593 7.93057 13.0195 4.81353 13.4749C4.17094 13.5687 3.69966 14.1268 3.69966 14.7806H4.05015M14.3006 14.7698C14.3003 15.0647 14.1991 15.3527 14.013 15.58C13.939 15.6704 13.8644 15.7604 13.7893 15.8499H14.0479C14.0872 15.8025 14.1268 15.7546 14.1668 15.706C14.3824 15.4414 14.4999 15.1105 14.4997 14.7692V14.7689C14.4997 14.0286 13.9597 13.3951 13.2249 13.2936L13.2248 13.2936C10.096 12.8606 7.92275 12.8198 4.78483 13.2784L4.78478 13.2784C4.04095 13.387 3.50063 14.0319 3.50063 14.7811C3.50063 15.113 3.60903 15.4401 3.81201 15.7033C3.85024 15.7529 3.88815 15.8019 3.92582 15.8504H4.17873C4.10849 15.7613 4.03882 15.6718 3.96973 15.5818L3.96898 15.5808C3.7935 15.3507 3.69884 15.0691 3.69966 14.7796L4.05015 14.7806M14.3006 14.7698C14.3006 14.7693 14.3006 14.7689 14.3006 14.7685H13.9501L14.3006 14.7708C14.3006 14.7704 14.3006 14.7701 14.3006 14.7698ZM4.05015 14.7806C4.05015 14.296 4.39845 13.8896 4.8642 13.8217L4.62699 15.8504C4.49867 15.6912 4.37223 15.5305 4.2477 15.3683C4.11898 15.1995 4.04954 14.9929 4.05015 14.7806ZM13.0236 16.2004H13.49L13.3295 15.8499C13.2285 15.9676 13.1266 16.0844 13.0236 16.2004ZM9.00015 9.80088C9.40074 9.80088 9.79742 9.72197 10.1675 9.56867C10.5376 9.41537 10.8739 9.19067 11.1572 8.90741C11.4404 8.62415 11.6651 8.28786 11.8184 7.91776C11.9717 7.54766 12.0506 7.15099 12.0506 6.75039C12.0506 6.3498 11.9717 5.95312 11.8184 5.58302C11.6651 5.21292 11.4404 4.87664 11.1572 4.59337C10.8739 4.31011 10.5376 4.08541 10.1675 3.93211C9.79742 3.77881 9.40074 3.6999 9.00015 3.6999C8.19111 3.6999 7.4152 4.02129 6.84313 4.59337C6.27105 5.16545 5.94966 5.94135 5.94966 6.75039C5.94966 7.55943 6.27105 8.33533 6.84313 8.90741C7.4152 9.47949 8.19111 9.80088 9.00015 9.80088ZM11.2979 9.04814C10.6885 9.65755 9.86197 9.9999 9.00015 9.9999C8.13832 9.9999 7.3118 9.65755 6.70239 9.04814C6.09299 8.43874 5.75063 7.61222 5.75063 6.75039C5.75063 5.88857 6.09299 5.06204 6.70239 4.45264C7.3118 3.84324 8.13832 3.50088 9.00015 3.50088C9.86197 3.50088 10.6885 3.84324 11.2979 4.45264C11.9073 5.06204 12.2497 5.88857 12.2497 6.75039C12.2497 7.61222 11.9073 8.43874 11.2979 9.04814Z" fill="white" stroke="white" stroke-width="0.700972"/>
<path d="M9 17.4505C13.667 17.4505 17.4505 13.667 17.4505 9C17.4505 4.33298 13.667 0.549514 9 0.549514C4.33298 0.549514 0.549514 4.33298 0.549514 9C0.549514 13.667 4.33298 17.4505 9 17.4505ZM17.6495 9C17.6495 13.7771 13.7771 17.6495 9 17.6495C4.22287 17.6495 0.350486 13.7771 0.350486 9C0.350486 4.22287 4.22287 0.350486 9 0.350486C13.7771 0.350486 17.6495 4.22287 17.6495 9Z" fill="white" stroke="white" stroke-width="0.700972"/>
</svg>
