<svg width="32" height="32" viewBox="0 0 32 32" fill="none" xmlns="http://www.w3.org/2000/svg">
<path d="M25.4001 6.54707C24.1777 5.31231 22.7216 4.3333 21.1169 3.66714C19.5122 3.00098 17.7909 2.66102 16.0534 2.66707C8.7734 2.66707 2.84007 8.6004 2.84007 15.8804C2.84007 18.2137 3.4534 20.4804 4.60007 22.4804L2.7334 29.3337L9.7334 27.4937C11.6667 28.5471 13.8401 29.1071 16.0534 29.1071C23.3334 29.1071 29.2667 23.1737 29.2667 15.8937C29.2667 12.3604 27.8934 9.0404 25.4001 6.54707ZM16.0534 26.8671C14.0801 26.8671 12.1467 26.3337 10.4534 25.3337L10.0534 25.0937L5.8934 26.1871L7.00006 22.1337L6.7334 21.7204C5.63706 19.9697 5.05492 17.9461 5.0534 15.8804C5.0534 9.82707 9.98673 4.89374 16.0401 4.89374C18.9734 4.89374 21.7334 6.04041 23.8001 8.12041C24.8234 9.13902 25.6343 10.3506 26.1859 11.685C26.7375 13.0193 27.0188 14.4499 27.0134 15.8937C27.0401 21.9471 22.1067 26.8671 16.0534 26.8671ZM22.0801 18.6537C21.7467 18.4937 20.1201 17.6937 19.8267 17.5737C19.5201 17.4671 19.3067 17.4137 19.0801 17.7337C18.8534 18.0671 18.2267 18.8137 18.0401 19.0271C17.8534 19.2537 17.6534 19.2804 17.3201 19.1071C16.9867 18.9471 15.9201 18.5871 14.6667 17.4671C13.6801 16.5871 13.0267 15.5071 12.8267 15.1737C12.6401 14.8404 12.8001 14.6671 12.9734 14.4937C13.1201 14.3471 13.3067 14.1071 13.4667 13.9204C13.6267 13.7337 13.6934 13.5871 13.8001 13.3737C13.9067 13.1471 13.8534 12.9604 13.7734 12.8004C13.6934 12.6404 13.0267 11.0137 12.7601 10.3471C12.4934 9.70707 12.2134 9.78707 12.0134 9.77374H11.3734C11.1467 9.77374 10.8001 9.85374 10.4934 10.1871C10.2001 10.5204 9.34673 11.3204 9.34673 12.9471C9.34673 14.5737 10.5334 16.1471 10.6934 16.3604C10.8534 16.5871 13.0267 19.9204 16.3334 21.3471C17.1201 21.6937 17.7334 21.8937 18.2134 22.0404C19.0001 22.2937 19.7201 22.2537 20.2934 22.1737C20.9334 22.0804 22.2534 21.3737 22.5201 20.6004C22.8001 19.8271 22.8001 19.1737 22.7067 19.0271C22.6134 18.8804 22.4134 18.8137 22.0801 18.6537Z" fill="#CCCCCC"/>
</svg>
