<svg width="28" height="22" viewBox="0 0 28 22" fill="none" xmlns="http://www.w3.org/2000/svg">
<path fill-rule="evenodd" clip-rule="evenodd" d="M11.8479 6.14261C11.6962 6.05153 11.523 6.00234 11.346 6.00008C11.1691 5.99782 10.9947 6.04256 10.8407 6.12974C10.6867 6.21691 10.5585 6.3434 10.4694 6.49628C10.3802 6.64917 10.3333 6.82297 10.3333 6.99994V14.9999C10.3333 15.1769 10.3802 15.3507 10.4694 15.5036C10.5585 15.6565 10.6867 15.783 10.8407 15.8701C10.9947 15.9573 11.1691 16.0021 11.346 15.9998C11.523 15.9975 11.6962 15.9484 11.8479 15.8573L18.5146 11.8573C18.6626 11.7684 18.7851 11.6427 18.8701 11.4925C18.9551 11.3423 18.9998 11.1726 18.9998 10.9999C18.9998 10.8273 18.9551 10.6576 18.8701 10.5074C18.7851 10.3571 18.6626 10.2315 18.5146 10.1426L11.8479 6.14261ZM16.0559 10.9999L12.3333 13.2333V8.76661L16.0559 10.9999Z" fill="#CCCCCC"/>
<path fill-rule="evenodd" clip-rule="evenodd" d="M20.7066 1.18769C16.2423 0.838478 11.7576 0.838478 7.29327 1.18769L4.30527 1.42236C3.42238 1.49118 2.58791 1.85346 1.93478 2.4515C1.28165 3.04954 0.847426 3.84894 0.701269 4.72236C0.00680359 8.87844 0.00680359 13.1209 0.701269 17.277C0.847426 18.1504 1.28165 18.9498 1.93478 19.5479C2.58791 20.1459 3.42238 20.5082 4.30527 20.577L7.29194 20.8117C11.7573 21.161 16.2426 21.161 20.7079 20.8117L23.6946 20.577C24.5775 20.5082 25.412 20.1459 26.0651 19.5479C26.7182 18.9498 27.1524 18.1504 27.2986 17.277C27.9919 13.121 27.9919 8.87836 27.2986 4.72236C27.1524 3.84894 26.7182 3.04954 26.0651 2.4515C25.412 1.85346 24.5775 1.49118 23.6946 1.42236L20.7066 1.18769ZM7.44927 3.18236C11.8106 2.84112 16.1919 2.84112 20.5533 3.18236L23.5399 3.41569C24.4413 3.48636 25.1786 4.16236 25.3266 5.05303C25.9844 8.99019 25.9844 13.0092 25.3266 16.9464C25.2544 17.3796 25.0392 17.7762 24.7154 18.0729C24.3916 18.3697 23.9778 18.5495 23.5399 18.5837L20.5533 18.817C16.1919 19.1584 11.8106 19.1584 7.44927 18.817L4.4626 18.5837C4.02473 18.5495 3.61091 18.3697 3.28711 18.0729C2.9633 17.7762 2.74815 17.3796 2.67594 16.9464C2.01817 13.0092 2.01817 8.99019 2.67594 5.05303C2.74815 4.61979 2.9633 4.2232 3.28711 3.92646C3.61091 3.62972 4.02473 3.44991 4.4626 3.41569L7.44927 3.18236Z" fill="#CCCCCC"/>
</svg>
